<svg id="visual" viewBox="0 0 960 150" width="960" height="150" ><rect x="0" y="0" width="960" height="150" fill="#101010"></rect><path d="M0 53L16 47.3C32 41.7 64 30.3 96 27C128 23.7 160 28.3 192 37.3C224 46.3 256 59.7 288 62.8C320 66 352 59 384 56C416 53 448 54 480 58C512 62 544 69 576 71.8C608 74.7 640 73.3 672 69.3C704 65.3 736 58.7 768 61.8C800 65 832 78 864 80.2C896 82.3 928 73.7 944 69.3L960 65L960 151L944 151C928 151 896 151 864 151C832 151 800 151 768 151C736 151 704 151 672 151C640 151 608 151 576 151C544 151 512 151 480 151C448 151 416 151 384 151C352 151 320 151 288 151C256 151 224 151 192 151C160 151 128 151 96 151C64 151 32 151 16 151L0 151Z" fill="#fac7c9"></path><path d="M0 92L16 92.3C32 92.7 64 93.3 96 94.7C128 96 160 98 192 95.5C224 93 256 86 288 79.7C320 73.3 352 67.7 384 64.3C416 61 448 60 480 64.5C512 69 544 79 576 80.5C608 82 640 75 672 70.3C704 65.7 736 63.3 768 67.7C800 72 832 83 864 83.5C896 84 928 74 944 69L960 64L960 151L944 151C928 151 896 151 864 151C832 151 800 151 768 151C736 151 704 151 672 151C640 151 608 151 576 151C544 151 512 151 480 151C448 151 416 151 384 151C352 151 320 151 288 151C256 151 224 151 192 151C160 151 128 151 96 151C64 151 32 151 16 151L0 151Z" fill="#f7a0a0"></path><path d="M0 95L16 94.8C32 94.7 64 94.3 96 90.8C128 87.3 160 80.7 192 83.7C224 86.7 256 99.3 288 103.8C320 108.3 352 104.7 384 98.5C416 92.3 448 83.7 480 79.2C512 74.7 544 74.3 576 76.2C608 78 640 82 672 85.2C704 88.3 736 90.7 768 88.7C800 86.7 832 80.3 864 79.2C896 78 928 82 944 84L960 86L960 151L944 151C928 151 896 151 864 151C832 151 800 151 768 151C736 151 704 151 672 151C640 151 608 151 576 151C544 151 512 151 480 151C448 151 416 151 384 151C352 151 320 151 288 151C256 151 224 151 192 151C160 151 128 151 96 151C64 151 32 151 16 151L0 151Z" fill="#ee7875"></path><path d="M0 100L16 100.7C32 101.3 64 102.7 96 102.3C128 102 160 100 192 99.2C224 98.3 256 98.7 288 96.7C320 94.7 352 90.3 384 92.8C416 95.3 448 104.7 480 111.8C512 119 544 124 576 126.3C608 128.7 640 128.3 672 124.7C704 121 736 114 768 113.2C800 112.3 832 117.7 864 118.2C896 118.7 928 114.3 944 112.2L960 110L960 151L944 151C928 151 896 151 864 151C832 151 800 151 768 151C736 151 704 151 672 151C640 151 608 151 576 151C544 151 512 151 480 151C448 151 416 151 384 151C352 151 320 151 288 151C256 151 224 151 192 151C160 151 128 151 96 151C64 151 32 151 16 151L0 151Z" fill="#e04e48"></path><path d="M0 110L16 111C32 112 64 114 96 117.7C128 121.3 160 126.7 192 127.7C224 128.7 256 125.3 288 123C320 120.7 352 119.3 384 120C416 120.7 448 123.3 480 126.8C512 130.3 544 134.7 576 131.5C608 128.3 640 117.7 672 115.3C704 113 736 119 768 123.5C800 128 832 131 864 129.8C896 128.7 928 123.3 944 120.7L960 118L960 151L944 151C928 151 896 151 864 151C832 151 800 151 768 151C736 151 704 151 672 151C640 151 608 151 576 151C544 151 512 151 480 151C448 151 416 151 384 151C352 151 320 151 288 151C256 151 224 151 192 151C160 151 128 151 96 151C64 151 32 151 16 151L0 151Z" fill="#cd1319"></path></svg>