<svg id="visual" viewBox="0 0 960 150" width="960" height="150" xmlns="http://www.w3.org/2000/svg" xmlns:xlink="http://www.w3.org/1999/xlink" version="1.1"><rect x="0" y="0" width="960" height="150" fill="#101010"></rect><path d="M0 64L16 64.7C32 65.3 64 66.7 96 63.7C128 60.7 160 53.3 192 46.2C224 39 256 32 288 33.3C320 34.7 352 44.3 384 51.8C416 59.3 448 64.7 480 70C512 75.3 544 80.7 576 77.7C608 74.7 640 63.3 672 53.3C704 43.3 736 34.7 768 39.5C800 44.3 832 62.7 864 70.3C896 78 928 75 944 73.5L960 72L960 151L944 151C928 151 896 151 864 151C832 151 800 151 768 151C736 151 704 151 672 151C640 151 608 151 576 151C544 151 512 151 480 151C448 151 416 151 384 151C352 151 320 151 288 151C256 151 224 151 192 151C160 151 128 151 96 151C64 151 32 151 16 151L0 151Z" fill="#ffebad"></path><path d="M0 77L16 80.3C32 83.7 64 90.3 96 85.2C128 80 160 63 192 54.8C224 46.7 256 47.3 288 46.8C320 46.3 352 44.7 384 46.3C416 48 448 53 480 58.8C512 64.7 544 71.3 576 73.2C608 75 640 72 672 67.2C704 62.3 736 55.7 768 61C800 66.3 832 83.7 864 89.8C896 96 928 91 944 88.5L960 86L960 151L944 151C928 151 896 151 864 151C832 151 800 151 768 151C736 151 704 151 672 151C640 151 608 151 576 151C544 151 512 151 480 151C448 151 416 151 384 151C352 151 320 151 288 151C256 151 224 151 192 151C160 151 128 151 96 151C64 151 32 151 16 151L0 151Z" fill="#ffe38e"></path><path d="M0 111L16 106.5C32 102 64 93 96 87.7C128 82.3 160 80.7 192 78.3C224 76 256 73 288 77.7C320 82.3 352 94.7 384 94.7C416 94.7 448 82.3 480 75.2C512 68 544 66 576 71.7C608 77.3 640 90.7 672 94C704 97.3 736 90.7 768 86C800 81.3 832 78.7 864 80.2C896 81.7 928 87.3 944 90.2L960 93L960 151L944 151C928 151 896 151 864 151C832 151 800 151 768 151C736 151 704 151 672 151C640 151 608 151 576 151C544 151 512 151 480 151C448 151 416 151 384 151C352 151 320 151 288 151C256 151 224 151 192 151C160 151 128 151 96 151C64 151 32 151 16 151L0 151Z" fill="#ffdd59"></path><path d="M0 116L16 110.8C32 105.7 64 95.3 96 94.7C128 94 160 103 192 103.7C224 104.3 256 96.7 288 92C320 87.3 352 85.7 384 87.5C416 89.3 448 94.7 480 100.5C512 106.3 544 112.7 576 110.7C608 108.7 640 98.3 672 93.5C704 88.7 736 89.3 768 95.8C800 102.3 832 114.7 864 120.7C896 126.7 928 126.3 944 126.2L960 126L960 151L944 151C928 151 896 151 864 151C832 151 800 151 768 151C736 151 704 151 672 151C640 151 608 151 576 151C544 151 512 151 480 151C448 151 416 151 384 151C352 151 320 151 288 151C256 151 224 151 192 151C160 151 128 151 96 151C64 151 32 151 16 151L0 151Z" fill="#ffc048"></path><path d="M0 129L16 127.2C32 125.3 64 121.7 96 119.7C128 117.7 160 117.3 192 117C224 116.7 256 116.3 288 120.3C320 124.3 352 132.7 384 134.2C416 135.7 448 130.3 480 127.7C512 125 544 125 576 125.2C608 125.3 640 125.7 672 123.5C704 121.3 736 116.7 768 117C800 117.3 832 122.7 864 121.8C896 121 928 114 944 110.5L960 107L960 151L944 151C928 151 896 151 864 151C832 151 800 151 768 151C736 151 704 151 672 151C640 151 608 151 576 151C544 151 512 151 480 151C448 151 416 151 384 151C352 151 320 151 288 151C256 151 224 151 192 151C160 151 128 151 96 151C64 151 32 151 16 151L0 151Z" fill="#ffa801"></path></svg>