<svg id="visual" viewBox="0 0 960 150" width="960" height="150" xmlns="http://www.w3.org/2000/svg" xmlns:xlink="http://www.w3.org/1999/xlink" version="1.1"><rect x="0" y="0" width="960" height="150" fill="#101010"></rect><path d="M0 120L16 121.2C32 122.3 64 124.7 96 122C128 119.3 160 111.7 192 105.8C224 100 256 96 288 89.7C320 83.3 352 74.7 384 74.8C416 75 448 84 480 93.7C512 103.3 544 113.7 576 107.7C608 101.7 640 79.3 672 80.2C704 81 736 105 768 108.3C800 111.7 832 94.3 864 86.2C896 78 928 79 944 79.5L960 80L960 0L944 0C928 0 896 0 864 0C832 0 800 0 768 0C736 0 704 0 672 0C640 0 608 0 576 0C544 0 512 0 480 0C448 0 416 0 384 0C352 0 320 0 288 0C256 0 224 0 192 0C160 0 128 0 96 0C64 0 32 0 16 0L0 0Z" fill="#dee4f8"></path><path d="M0 49L16 50C32 51 64 53 96 53.7C128 54.3 160 53.7 192 56.3C224 59 256 65 288 70.8C320 76.7 352 82.3 384 88.8C416 95.3 448 102.7 480 101.3C512 100 544 90 576 88C608 86 640 92 672 88.8C704 85.7 736 73.3 768 74.2C800 75 832 89 864 86.5C896 84 928 65 944 55.5L960 46L960 0L944 0C928 0 896 0 864 0C832 0 800 0 768 0C736 0 704 0 672 0C640 0 608 0 576 0C544 0 512 0 480 0C448 0 416 0 384 0C352 0 320 0 288 0C256 0 224 0 192 0C160 0 128 0 96 0C64 0 32 0 16 0L0 0Z" fill="#b1bef3"></path><path d="M0 86L16 80C32 74 64 62 96 57.2C128 52.3 160 54.7 192 51.7C224 48.7 256 40.3 288 45C320 49.7 352 67.3 384 74.2C416 81 448 77 480 74C512 71 544 69 576 65.7C608 62.3 640 57.7 672 55.5C704 53.3 736 53.7 768 56.7C800 59.7 832 65.3 864 68C896 70.7 928 70.3 944 70.2L960 70L960 0L944 0C928 0 896 0 864 0C832 0 800 0 768 0C736 0 704 0 672 0C640 0 608 0 576 0C544 0 512 0 480 0C448 0 416 0 384 0C352 0 320 0 288 0C256 0 224 0 192 0C160 0 128 0 96 0C64 0 32 0 16 0L0 0Z" fill="#8699eb"></path><path d="M0 39L16 36C32 33 64 27 96 30.2C128 33.3 160 45.7 192 51.5C224 57.3 256 56.7 288 50.8C320 45 352 34 384 34C416 34 448 45 480 50.8C512 56.7 544 57.3 576 58.2C608 59 640 60 672 57.3C704 54.7 736 48.3 768 46.5C800 44.7 832 47.3 864 48C896 48.7 928 47.3 944 46.7L960 46L960 0L944 0C928 0 896 0 864 0C832 0 800 0 768 0C736 0 704 0 672 0C640 0 608 0 576 0C544 0 512 0 480 0C448 0 416 0 384 0C352 0 320 0 288 0C256 0 224 0 192 0C160 0 128 0 96 0C64 0 32 0 16 0L0 0Z" fill="#5a73e1"></path><path d="M0 14L16 17.3C32 20.7 64 27.3 96 27.8C128 28.3 160 22.7 192 23.7C224 24.7 256 32.3 288 35C320 37.7 352 35.3 384 32.2C416 29 448 25 480 25.2C512 25.3 544 29.7 576 28.3C608 27 640 20 672 18.7C704 17.3 736 21.7 768 26.3C800 31 832 36 864 36.8C896 37.7 928 34.3 944 32.7L960 31L960 0L944 0C928 0 896 0 864 0C832 0 800 0 768 0C736 0 704 0 672 0C640 0 608 0 576 0C544 0 512 0 480 0C448 0 416 0 384 0C352 0 320 0 288 0C256 0 224 0 192 0C160 0 128 0 96 0C64 0 32 0 16 0L0 0Z" fill="#214ed4"></path></svg>