<svg id="visual" viewBox="0 0 960 150" width="960" height="150" xmlns="http://www.w3.org/2000/svg" xmlns:xlink="http://www.w3.org/1999/xlink" version="1.1"><rect x="0" y="0" width="960" height="150" fill="#101010"></rect><path d="M0 84L16 83.3C32 82.7 64 81.3 96 84.3C128 87.3 160 94.7 192 101.8C224 109 256 116 288 114.7C320 113.3 352 103.7 384 96.2C416 88.7 448 83.3 480 78C512 72.7 544 67.3 576 70.3C608 73.3 640 84.7 672 94.7C704 104.7 736 113.3 768 108.5C800 103.7 832 85.3 864 77.7C896 70 928 73 944 74.5L960 76L960 0L944 0C928 0 896 0 864 0C832 0 800 0 768 0C736 0 704 0 672 0C640 0 608 0 576 0C544 0 512 0 480 0C448 0 416 0 384 0C352 0 320 0 288 0C256 0 224 0 192 0C160 0 128 0 96 0C64 0 32 0 16 0L0 0Z" fill="#fac7c9"></path><path d="M0 71L16 67.7C32 64.3 64 57.7 96 62.8C128 68 160 85 192 93.2C224 101.3 256 100.7 288 101.2C320 101.7 352 103.3 384 101.7C416 100 448 95 480 89.2C512 83.3 544 76.7 576 74.8C608 73 640 76 672 80.8C704 85.7 736 92.3 768 87C800 81.7 832 64.3 864 58.2C896 52 928 57 944 59.5L960 62L960 0L944 0C928 0 896 0 864 0C832 0 800 0 768 0C736 0 704 0 672 0C640 0 608 0 576 0C544 0 512 0 480 0C448 0 416 0 384 0C352 0 320 0 288 0C256 0 224 0 192 0C160 0 128 0 96 0C64 0 32 0 16 0L0 0Z" fill="#f7a0a0"></path><path d="M0 37L16 41.5C32 46 64 55 96 60.3C128 65.7 160 67.3 192 69.7C224 72 256 75 288 70.3C320 65.7 352 53.3 384 53.3C416 53.3 448 65.7 480 72.8C512 80 544 82 576 76.3C608 70.7 640 57.3 672 54C704 50.7 736 57.3 768 62C800 66.7 832 69.3 864 67.8C896 66.3 928 60.7 944 57.8L960 55L960 0L944 0C928 0 896 0 864 0C832 0 800 0 768 0C736 0 704 0 672 0C640 0 608 0 576 0C544 0 512 0 480 0C448 0 416 0 384 0C352 0 320 0 288 0C256 0 224 0 192 0C160 0 128 0 96 0C64 0 32 0 16 0L0 0Z" fill="#ee7875"></path><path d="M0 32L16 37.2C32 42.3 64 52.7 96 53.3C128 54 160 45 192 44.3C224 43.7 256 51.3 288 56C320 60.7 352 62.3 384 60.5C416 58.7 448 53.3 480 47.5C512 41.7 544 35.3 576 37.3C608 39.3 640 49.7 672 54.5C704 59.3 736 58.7 768 52.2C800 45.7 832 33.3 864 27.3C896 21.3 928 21.7 944 21.8L960 22L960 0L944 0C928 0 896 0 864 0C832 0 800 0 768 0C736 0 704 0 672 0C640 0 608 0 576 0C544 0 512 0 480 0C448 0 416 0 384 0C352 0 320 0 288 0C256 0 224 0 192 0C160 0 128 0 96 0C64 0 32 0 16 0L0 0Z" fill="#e04e48"></path><path d="M0 19L16 20.8C32 22.7 64 26.3 96 28.3C128 30.3 160 30.7 192 31C224 31.3 256 31.7 288 27.7C320 23.7 352 15.3 384 13.8C416 12.3 448 17.7 480 20.3C512 23 544 23 576 22.8C608 22.7 640 22.3 672 24.5C704 26.7 736 31.3 768 31C800 30.7 832 25.3 864 26.2C896 27 928 34 944 37.5L960 41L960 0L944 0C928 0 896 0 864 0C832 0 800 0 768 0C736 0 704 0 672 0C640 0 608 0 576 0C544 0 512 0 480 0C448 0 416 0 384 0C352 0 320 0 288 0C256 0 224 0 192 0C160 0 128 0 96 0C64 0 32 0 16 0L0 0Z" fill="#cd1319"></path></svg>